<svg id="Layer_1" data-name="Layer 1" xmlns="http://www.w3.org/2000/svg" width="300" height="125" viewBox="0 0 300 125" style="stroke: crimson;"><title>strata_logo_rev</title><path d="M0,103.24H7.32c6.49,0,10.25,2.93,10.25,10v.63c0,6.9-3.56,10.46-10.25,10.46H0Zm7.53,17.57c3.56,0,5.44-1.88,5.44-6.49v-1c0-5-2.09-6.49-5.65-6.49H4.81v14Z" fill="#d3002d"/><path d="M28.45,103.24h4.81l7.32,20.92H35.77l-1.67-4.81H26.57l-1.67,4.81H20.71Zm-.63,13h5.44l-2.72-7.74h-.21Z" fill="#d3002d"/><path d="M47.7,106.8H41.84v-3.56H58.16v3.56H52.3v17.57H47.7Z" fill="#d3002d"/><path d="M66.95,103.24h4.81l7.32,20.92H74.27l-1.67-4.81H65.48l-1.67,4.81H59.62Zm-.63,13h5.44L69,108.47h-.21Z" fill="#d3002d"/><path d="M91.84,114.12v-.84c0-7.74,4.6-10.46,10-10.46a11.88,11.88,0,0,1,5.44,1v3.56a15.29,15.29,0,0,0-4.81-.84c-3.56,0-5.65,1.88-5.65,6.49v1c0,4.39,1.67,7.11,5.86,7.11a11.74,11.74,0,0,0,4.81-1v3.56a14.34,14.34,0,0,1-5.86,1.26C95.61,124.79,91.84,121.23,91.84,114.12Z" fill="#d3002d"/><path d="M111.72,114.12v-.63c0-7.11,4.39-10.46,9.83-10.46,5.65,0,9.83,3.35,9.83,10.46v.63c0,7.11-4.39,10.67-9.83,10.67C115.9,124.79,111.72,121.23,111.72,114.12Zm14.85.42v-1c0-4.6-1.46-6.9-5-7.11-3.35,0-4.81,2.51-4.81,6.69v1c0,4.6,1.46,7.11,5,7.11C124.9,121.23,126.57,118.72,126.57,114.54Z" fill="#d3002d"/><path d="M137.24,103.24h5l7.95,13.6h0v-13.6h4v20.92h-4.6L141,109.52h-.21v14.64h-4V103.24Z" fill="#d3002d"/><path d="M161.09,103.24h13.6v3.56H165.9v5.65h6.9v3.35h-6.9v8.37h-4.6V103.24Z" fill="#d3002d"/><path d="M180.13,103.24h13.81v3.56h-9.2v5h7.11v3.35h-7.11v5.65h9.41v3.56h-14Z" fill="#d3002d"/><path d="M199.79,103.24h7.74q7.53,0,7.53,6.28c0,2.93-1.46,4.39-3.77,5.44v.21l5,9.21h-5l-4.39-8.16h-2.72v8.16h-4.6V103.24Zm7.32,9.83c2.51,0,3.56-1,3.56-3.35,0-2.09-1-3.14-3.56-3.14H204.6v6.49Z" fill="#d3002d"/><path d="M221.55,103.24h13.81v3.56h-9v5h7.11v3.35h-7.11v5.65h9.41v3.56h-14V103.24Z" fill="#d3002d"/><path d="M241.42,103.24h5l7.95,13.6h0v-13.6h4v20.92h-4.6l-8.58-14.64h.21v14.64h-4Z" fill="#d3002d"/><path d="M264.43,114.12v-.84c0-7.74,4.6-10.46,10-10.46a11.88,11.88,0,0,1,5.44,1v3.56a15.29,15.29,0,0,0-4.81-.84c-3.56,0-5.86,1.88-5.86,6.49v1c0,4.39,1.67,7.11,5.86,7.11a11.74,11.74,0,0,0,4.81-1v3.56a14.34,14.34,0,0,1-5.86,1.26C268.2,124.79,264.43,121.23,264.43,114.12Z" fill="#d3002d"/><path d="M285.77,103.24h13.81v3.56h-9v5h7.11v3.35h-7.11v5.65H300v3.56H286V103.24Z" fill="#d3002d"/><path d="M48.54,5.23c0-2.51,1.26-4,3.35-4s3.35,1.46,3.35,4V25.52c0,2.72-1.26,4.18-3.35,4.18A4.24,4.24,0,0,1,49,28c-.21-.63-.21-.63-1-6.49-1.46-9.41-10-15.69-21.13-15.69s-19,6.49-19,15.9c0,7.32,4,11.09,16.53,15.27l13,4.39c14.23,4.81,19.87,10.88,19.87,22,0,14-10.67,23.43-26.36,23.43-12.13,0-20.29-4.6-24.06-13.6v8.37c0,2.51-1.26,4-3.35,4S0,84.1,0,81.59V60c0-2.72,1.26-4.18,3.35-4.18,2.3,0,3.35,1.26,3.56,5,.21,4,2.93,10.46,5.86,13.6C16.53,78.66,22.38,81,29.29,81c12.13,0,20.29-6.9,20.29-17.15a13.23,13.23,0,0,0-6.28-11.72,54.94,54.94,0,0,0-9.41-4.18L22.8,44.14C14,41.21,10,39.12,6.9,36.82A18.38,18.38,0,0,1,.21,22.18C.21,9,10.88,0,26.15,0,37,0,44.77,4.18,48.74,12.34V5.23Z" fill="#fff"/><path d="M77,69.25c0,6.28.21,7.74,1.67,9.62,1,1.67,3.77,2.93,6.07,2.93,3.56,0,5.86-1.88,7.11-5.44a17,17,0,0,0,.84-5,2.77,2.77,0,0,1,2.72-2.72c1.88,0,2.93,1.46,2.93,3.77A17.92,17.92,0,0,1,96,80.54C93.72,84.73,89.54,87,84.1,87c-9.62,0-14-5.65-14-18V34.52A2.22,2.22,0,0,0,67.57,32H61.3c-2.09,0-3.35-1-3.35-2.72,0-1.46,1.26-2.51,3.35-2.51h6.28a2.22,2.22,0,0,0,2.51-2.51V16.32c0-2.72,1.26-4.18,3.35-4.18s3.35,1.46,3.35,4.18v7.95a2.22,2.22,0,0,0,2.51,2.51H93.1c2.09,0,3.14.84,3.14,2.72Q96.23,32,93.1,32H79.29a2.22,2.22,0,0,0-2.51,2.51V69.25Z" fill="#fff"/><path d="M119.46,38.91c1.26-4.39,2.3-6.28,5-8.58a21.25,21.25,0,0,1,13.81-5.23c3.35,0,5.23,1.26,5.23,3.35,0,1.46-.84,2.3-1.88,2.3a5.89,5.89,0,0,1-1.67-.21,7.21,7.21,0,0,0-1.88-.21,29.62,29.62,0,0,0-8.79,2.09c-6.28,2.93-9.62,9.83-9.62,19.87V77.62a2.22,2.22,0,0,0,2.51,2.51h7.32c2.09,0,3.14,1,3.14,2.72,0,1.46-1,2.51-3.14,2.51H105c-2.09,0-3.35-1-3.35-2.72,0-1.46,1.26-2.51,3.35-2.51h5.23a2.22,2.22,0,0,0,2.51-2.51V34.52A2.22,2.22,0,0,0,110.25,32H105c-2.09,0-3.35-1-3.35-2.72,0-1.46,1.26-2.51,3.35-2.51h11.51c2.09,0,2.93.84,2.93,2.93Z" fill="#fff"/><path d="M185.15,73c-4.39,10-11.09,14.23-22.59,14.23-13.18,0-21.13-6.69-21.13-17.78,0-7.53,3.77-13.18,10.46-16.11,4.6-2.09,11.3-2.93,21.76-2.93,2.3,0,4.81,0,6.9.21a10.27,10.27,0,0,0,2.3.21c1.46,0,2.51-.84,2.51-2.09v-.42c0-8.16-.84-10.88-4.18-13.81-2.93-2.72-6.9-3.77-12.76-3.77-10,0-16.11,4.18-17.36,11.92A3.63,3.63,0,0,1,147.49,46a3.58,3.58,0,0,1-3.56-3.77c0-5.23,4.39-11.3,10-14.23a35.5,35.5,0,0,1,14.44-2.72c8.79,0,15.06,2.09,19,6.69,3.35,3.77,4.39,7.74,4.39,16.11V77.82a2.22,2.22,0,0,0,2.51,2.51h4.39c2.09,0,3.14,1,3.14,2.72,0,1.46-1,2.51-3.14,2.51H188.07c-2.09,0-2.93-.84-2.93-2.93Zm-36.61-3.77C148.54,77.41,154.18,82,164,82c7.95,0,14-2.93,17.36-8.79,1.67-2.72,3.56-10.67,3.56-15.48a2.2,2.2,0,0,0-1-1.88,99,99,0,0,0-11.3-.42C156.28,55.23,148.54,59.83,148.54,69.25Z" fill="#fff"/><path d="M213.39,69.25c0,6.28.21,7.74,1.67,9.62,1,1.67,3.77,2.93,6.07,2.93,3.56,0,5.86-1.88,7.11-5.44a17,17,0,0,0,.84-5,2.77,2.77,0,0,1,2.72-2.72c1.88,0,2.93,1.46,2.93,3.77a17.91,17.91,0,0,1-2.3,8.16c-2.3,4.18-6.49,6.49-11.92,6.49-9.62,0-14-5.65-14-18V34.52A2.22,2.22,0,0,0,204,32H197.7c-2.09,0-3.35-1-3.35-2.72,0-1.46,1.26-2.51,3.35-2.51H204a2.22,2.22,0,0,0,2.51-2.51V16.32c0-2.72,1.26-4.18,3.35-4.18s3.35,1.46,3.35,4.18v7.95a2.22,2.22,0,0,0,2.51,2.51H229.5c2.09,0,3.14.84,3.14,2.72q0,2.51-3.14,2.51H215.69a2.22,2.22,0,0,0-2.51,2.51V69.25Z" fill="#fff"/><path d="M283.05,73c-4.39,10-11.09,14.23-22.59,14.23-13.18,0-21.13-6.69-21.13-17.78,0-7.53,3.77-13.18,10.46-16.11,4.6-2.09,11.3-2.93,21.76-2.93,2.3,0,4.81,0,6.9.21a10.27,10.27,0,0,0,2.3.21c1.46,0,2.51-.84,2.51-2.09v-.42c0-8.16-.84-10.88-4.18-13.81-2.93-2.72-6.9-3.77-12.76-3.77-10,0-16.11,4.18-17.36,11.92A3.63,3.63,0,0,1,245.4,46a3.58,3.58,0,0,1-3.56-3.77c0-5.23,4.39-11.3,10-14.23a35.5,35.5,0,0,1,14.44-2.72c8.79,0,15.06,2.09,19,6.69,3.35,3.77,4.39,7.74,4.39,16.11V77.82a2.22,2.22,0,0,0,2.51,2.51h4.39c2.09,0,3.14,1,3.14,2.72,0,1.46-1,2.51-3.14,2.51H286c-2.09,0-2.93-.84-2.93-2.93Zm-36.61-3.77c0,8.16,5.65,12.76,15.48,12.76,7.95,0,14-2.93,17.36-8.79,1.67-2.72,3.56-10.67,3.56-15.48a2.2,2.2,0,0,0-1-1.88,99,99,0,0,0-11.3-.42C254.18,55.23,246.44,59.83,246.44,69.25Z" fill="#fff"/></svg>